{
	"asset":{
		"generator":"Khronos glTF Blender I/O v3.5.30",
		"version":"2.0"
	},
	"scene":0,
	"scenes":[
		{
			"name":"Scene",
			"nodes":[
				0
			]
		}
	],
	"nodes":[
		{
			"mesh":0,
			"name":"Cube",
			"translation":[
				0,
				4.27391242980957,
				0
			]
		}
	],
	"materials":[
		{
			"doubleSided":true,
			"name":"Material",
			"pbrMetallicRoughness":{
				"baseColorFactor":[
					0.800000011920929,
					0.800000011920929,
					0.800000011920929,
					1
				],
				"roughnessFactor":0.5
			}
		}
	],
	"meshes":[
		{
			"name":"Cube",
			"primitives":[
				{
					"attributes":{
						"POSITION":0,
						"TEXCOORD_0":1,
						"NORMAL":2,
						"TANGENT":3
					},
					"indices":4,
					"material":0
				}
			]
		}
	],
	"accessors":[
		{
			"bufferView":0,
			"componentType":5126,
			"count":142,
			"max":[
				1,
				1,
				1
			],
			"min":[
				-1,
				-4.292003154754639,
				-7.7846832275390625
			],
			"type":"VEC3"
		},
		{
			"bufferView":1,
			"componentType":5126,
			"count":142,
			"type":"VEC2"
		},
		{
			"bufferView":2,
			"componentType":5126,
			"count":142,
			"type":"VEC3"
		},
		{
			"bufferView":3,
			"componentType":5126,
			"count":142,
			"type":"VEC4"
		},
		{
			"bufferView":4,
			"componentType":5123,
			"count":264,
			"type":"SCALAR"
		}
	],
	"bufferViews":[
		{
			"buffer":0,
			"byteLength":1704,
			"byteOffset":0,
			"target":34962
		},
		{
			"buffer":0,
			"byteLength":1136,
			"byteOffset":1704,
			"target":34962
		},
		{
			"buffer":0,
			"byteLength":1704,
			"byteOffset":2840,
			"target":34962
		},
		{
			"buffer":0,
			"byteLength":2272,
			"byteOffset":4544,
			"target":34962
		},
		{
			"buffer":0,
			"byteLength":528,
			"byteOffset":6816,
			"target":34963
		}
	],
	"buffers":[
		{
			"byteLength":7344,
			"uri":"bad_gun-7ca88cd85a37a67520132e794ff9d2df.bin"
		}
	]
}
